<?xml version="1.0" encoding="utf-8"?>
<!-- Generator: Adobe Illustrator 23.0.1, SVG Export Plug-In . SVG Version: 6.00 Build 0)  -->
<svg version="1.1" id="图层_1" xmlns="http://www.w3.org/2000/svg" xmlns:xlink="http://www.w3.org/1999/xlink" x="0px" y="0px"
	 viewBox="0 0 68.9 33" style="enable-background:new 0 0 68.9 33;" xml:space="preserve">
<style type="text/css">
	.st0{fill:#E92E70;}
</style>
<g>
	<g>
		<path class="st0" d="M8.2,31.4L8.2,31.4C6.5,31.4,5,30,5,28.2V4.9c0-1.7,1.4-3.2,3.2-3.2h0c1.7,0,3.2,1.4,3.2,3.2v23.3
			C11.4,30,9.9,31.4,8.2,31.4z"/>
		<path class="st0" d="M34.9,31.4L34.9,31.4c-1.7,0-3.2-1.4-3.2-3.2V4.9c0-1.7,1.4-3.2,3.2-3.2h0c1.7,0,3.2,1.4,3.2,3.2v23.3
			C38.1,30,36.7,31.4,34.9,31.4z"/>
		<path class="st0" d="M61.8,31.4L61.8,31.4c-1.7,0-3.2-1.4-3.2-3.2V10.7c0-1.7,1.4-3.2,3.2-3.2h0c1.7,0,3.2,1.4,3.2,3.2v17.6
			C64.9,30,63.5,31.4,61.8,31.4z"/>
		<path class="st0" d="M5,28.2L5,28.2C5,26.5,6.5,25,8.2,25h9c1.7,0,3.2,1.4,3.2,3.2v0c0,1.7-1.4,3.2-3.2,3.2h-9
			C6.5,31.4,5,30,5,28.2z"/>
		<path class="st0" d="M25.9,31.4L25.9,31.4c-1.7,0-3.2-1.4-3.2-3.2V16.6c0-1.7,1.4-3.2,3.2-3.2h0c1.7,0,3.2,1.4,3.2,3.2v11.7
			C29.1,30,27.7,31.4,25.9,31.4z"/>
		<path class="st0" d="M25.9,12.9L25.9,12.9c-1.7,0-3.2-1.4-3.2-3.2L23,8.4c0,0,0-0.1,0-0.1c0.1-1.9,0.2-2.6,2.9-0.2h0
			c2.6-2.3,2.8-1.7,2.9,0.1c0,0,0,0.1,0,0.1l0.3,1.4C29.1,11.5,27.7,12.9,25.9,12.9z"/>
		<path class="st0" d="M52.8,7C46,7,40.6,12.4,40.6,19.1S46,31.3,52.8,31.3s12.2-5.4,12.2-12.2S59.5,7,52.8,7z M52.8,25
			c-3.3,0-5.9-2.6-5.9-5.9c0-3.3,2.5-5.7,5.7-5.7c3.3,0,5.7,2.4,5.7,5.7C58.3,22.3,56,25,52.8,25z"/>
		<path class="st0" d="M27.2,6.8c0,0-1.3,1.1-1.3,1.1s-1.3-1-1.3-1.1c0-0.7,0.5-1.2,1.2-1.2C26.6,5.5,27.2,6.1,27.2,6.8z"/>
	</g>
</g>
</svg>
